#!OML:ASF F:\VICON\USERDATA\INSTALL\rory3\rory3.ASF
:FULLY-SPECIFIED
:DEGREES
564
root 1.48804 18.3029 43.3653 -7.13963 1.01822 -0.788584
lowerback 17.4944 -1.72575 -1.22821
upperback 1.12726 -2.14699 4.21084
thorax -8.393 -0.903619 5.79791
lowerneck -4.63858 -4.69047 -5.80475
upperneck 36.3454 -3.45804 -7.59582
head 12.9485 -3.25445 -2.37361
rclavicle -4.32357e-015 1.74931e-014
rhumerus -55.5706 -40.3068 -45.4087
rradius 39.6486
rwrist -45.9605
rhand -18.5345 -5.94676
rfingers 7.12502
rthumb 7.75448 -35.7846
lclavicle -4.32357e-015 1.74931e-014
lhumerus -47.4982 6.65459 78.233
lradius 43.9138
lwrist 5.92719
lhand -11.9403 50.3458
lfingers 7.12502
lthumb 14.1146 79.8464
rfemur -7.91378 2.48619 28.6994
rtibia 34.2068
rfoot -14.6381 -10.4714
rtoes 22.648
lfemur -15.6499 1.73163 -17.0697
ltibia 67.7441
lfoot 6.06253 -1.04346
ltoes -8.323
565
root 1.49601 18.3137 43.5599 -6.78797 0.577355 -0.727836
lowerback 17.305 -1.70762 -0.804062
upperback 0.451993 -2.0384 4.05422
thorax -9.0601 -0.844406 5.37774
lowerneck -2.62378 -4.68703 -6.09337
upperneck 36.081 -3.65922 -7.467
head 12.4242 -3.34148 -2.21122
rclavicle 6.24681e-014 -4.6118e-014
rhumerus -58.0837 -39.3896 -43.8803
rradius 41.9119
rwrist -47.9024
rhand -18.1538 -5.89555
rfingers 7.12502
rthumb 8.12194 -35.7195
lclavicle 6.24681e-014 -4.6118e-014
lhumerus -49.4601 6.64638 77.7194
lradius 42.8772
lwrist 6.08027
lhand -11.931 50.4008
lfingers 7.12502
lthumb 14.1235 79.9008
rfemur -7.49315 1.74688 28.489
rtibia 34.0256
rfoot -14.5689 -9.51034
rtoes 22.4421
lfemur -16.7961 1.80816 -17.4616
ltibia 67.2731
lfoot 3.30611 -0.319224
ltoes -14.2641
566
root 1.49476 18.3182 43.7379 -6.56123 0.0856896 -0.852836
lowerback 16.4475 -1.87233 -0.801421
upperback 1.86939 -2.30544 4.09405
thorax -7.01389 -1.04517 5.36387
lowerneck -6.62486 -4.67926 -5.2291
upperneck 36.2554 -3.27127 -7.94968
head 13.3059 -3.16291 -2.6577
rclavicle 2.20651e-014 -3.4191e-014
rhumerus -55.3491 -40.3427 -46.5955
rradius 43.955
rwrist -50.0688
rhand -19.1905 -5.87254
rfingers 7.12502
rthumb 7.12127 -35.7327
lclavicle 2.20651e-014 -3.4191e-014
lhumerus -47.3781 8.60941 76.9915
lradius 41.4585
lwrist 5.90607
lhand -11.7475 50.2021
lfingers 7.12502
lthumb 14.3003 79.6896
rfemur -7.06857 1.43579 28.6016
rtibia 34.1112
rfoot -14.938 -9.08056
rtoes 21.4367
lfemur -17.8986 1.87629 -17.5421
ltibia 66.5894
lfoot 1.68947 -0.0391343
ltoes -16.1864
567
root 1.45883 18.3029 43.9158 -6.95335 -1.2637 -2.56826
lowerback 17.1662 -1.68835 0.527744
upperback 1.658 -1.75137 4.60452
thorax -7.71708 -0.790517 5.08396
lowerneck -5.39688 -4.69334 -5.22344
upperneck 36.0915 -3.36743 -8.1091
head 12.9628 -3.21041 -2.67774
rclavicle -2.18663e-014 -3.18055e-014
rhumerus -57.7645 -41.2059 -43.8852
rradius 45.1463
rwrist -49.747
rhand -18.527 -5.67361
rfingers 7.12502
rthumb 7.76172 -35.5112
lclavicle -2.18663e-014 -3.18055e-014
lhumerus -48.9214 9.03779 76.3003
lradius 40.3764
lwrist 5.8102
lhand -11.6081 50.0111
lfingers 7.12502
lthumb 14.4346 79.4892
rfemur -5.70877 2.73581 31.0355
rtibia 34.0787
rfoot -15.9823 -9.72047
rtoes 21.156
lfemur -18.4799 2.80298 -15.2584
ltibia 65.9456
lfoot 0.618901 -0.635125
ltoes -16.0194
568
root 1.46094 18.3119 44.0927 -6.41614 -1.40848 -1.7329
lowerback 17.8281 -1.63093 -0.0622968
upperback 0.265236 -1.7396 4.38546
thorax -9.6019 -0.71053 5.28271
lowerneck -2.84329 -4.64729 -5.85879
upperneck 36.1707 -3.48794 -7.95472
head 12.4916 -3.30783 -2.43616
rclavicle 5.46658e-016 -5.725e-014
rhumerus -60.5141 -38.1612 -43.0357
rradius 48.6676
rwrist -52.8163
rhand -14.0075 -5.43217
rfingers 7.12502
rthumb 12.1219 -35.061
lclavicle 5.46658e-016 -5.725e-014
lhumerus -51.8658 9.04043 75.6541
lradius 39.3124
lwrist 5.81186
lhand -11.6286 49.8941
lfingers 7.12502
lthumb 14.4149 79.3735
rfemur -5.99985 2.3091 29.9622
rtibia 34.0487
rfoot -15.7992 -9.58216
rtoes 17.2682
lfemur -19.7643 2.419 -16.5781
ltibia 64.7479
lfoot -0.471817 -0.100241
ltoes -16.5809
569
root 1.46929 18.3172 44.2792 -6.18104 -1.64709 -1.19213
lowerback 17.1738 -1.61597 -0.235556
upperback 0.349986 -1.79654 4.14901
thorax -9.13686 -0.748808 5.09479
lowerneck -2.14632 -4.69123 -6.28011
upperneck 35.62 -3.7484 -7.44695
head 12.1371 -3.39749 -2.14308
rclavicle 2.4202e-014 -1.43125e-014
rhumerus -61.4674 -38.1113 -42.5507
rradius 51.2016
rwrist -54.1829
rhand -11.2608 -5.87758
rfingers 7.12502
rthumb 14.7693 -35.3314
lclavicle 2.4202e-014 -1.43125e-014
lhumerus -52.2855 9.6128 75.0482
lradius 37.9679
lwrist 5.62115
lhand -11.3026 49.7832
lfingers 7.12502
lthumb 14.729 79.2399
rfemur -5.67917 1.63122 29.1648
rtibia 34.0137
rfoot -15.9874 -8.77638
rtoes 15.3905
lfemur -20.556 2.05615 -17.5446
ltibia 63.4066
lfoot -1.79641 0.599786
ltoes -18.7855
